<?xml version="1.0" encoding="utf-8"?>
<!-- Generator: Adobe Illustrator 24.0.3, SVG Export Plug-In . SVG Version: 6.00 Build 0)  -->
<svg version="1.1" id="Layer_1" xmlns="http://www.w3.org/2000/svg" xmlns:xlink="http://www.w3.org/1999/xlink" x="0px" y="0px"
	 width="24px" height="24px" viewBox="0 0 24 24" style="enable-background:new 0 0 24 24;" xml:space="preserve">
<style type="text/css">
	.st0{fill:none;}
	.st1{fill:#FFFFFF;}
</style>
<g id="Page-Designs">
	<g id="Mobile-Menu" transform="translate(-378.000000, -50.000000)">
		<g id="ICON_x2F_ic_x5F_search_x5F_24px" transform="translate(375.000000, 47.000000)">
			<polygon id="Shape" class="st0" points="3,3.1 27,3.1 27,27.1 3,27.1 			"/>
			<g id="COLOR" transform="translate(3.000000, 3.000000)">
				<g id="Mask">
					<path id="path-1_1_" fill="#000000" class="st1" d="M15.5,14.1h-0.8l-0.3-0.3c1-1.1,1.6-2.6,1.6-4.2c0-3.6-2.9-6.5-6.5-6.5S3,6,3,9.6
						s2.9,6.5,6.5,6.5c1.6,0,3.1-0.6,4.2-1.6l0.3,0.3v0.8l5,5l1.5-1.5L15.5,14.1z M9.5,14.1C7,14.1,5,12.1,5,9.6s2-4.5,4.5-4.5
						s4.5,2,4.5,4.5S12,14.1,9.5,14.1z"/>
				</g>
				<g id="BG_x2F_4-White">
				</g>
			</g>
		</g>
	</g>
</g>
</svg>
